<?xml version="1.0" standalone="no"?>
<!DOCTYPE svg PUBLIC "-//W3C//DTD SVG 20010904//EN"
 "http://www.w3.org/TR/2001/REC-SVG-20010904/DTD/svg10.dtd">
<svg version="1.0" xmlns="http://www.w3.org/2000/svg"
 width="2716.000000pt" height="832.000000pt" viewBox="0 0 2716.000000 832.000000"
 preserveAspectRatio="xMidYMid meet">

<g transform="translate(0.000000,832.000000) scale(0.100000,-0.100000)"
fill="#000000" stroke="none">
<path d="M17951 8003 c-23 -54 -50 -125 -60 -158 -10 -33 -32 -87 -48 -120
-56 -113 -95 -200 -123 -275 -15 -41 -40 -104 -55 -140 -57 -136 -85 -207 -98
-256 -8 -28 -26 -73 -41 -101 -14 -28 -33 -84 -42 -124 -9 -40 -25 -89 -35
-109 -10 -19 -29 -76 -42 -126 -14 -49 -32 -105 -41 -122 -9 -17 -28 -80 -41
-139 -14 -60 -34 -128 -44 -153 -11 -25 -27 -81 -36 -125 -9 -44 -27 -107 -39
-140 -13 -33 -29 -87 -36 -120 -19 -90 -36 -154 -58 -215 -11 -30 -30 -116
-43 -190 -12 -74 -30 -155 -40 -180 -9 -25 -27 -69 -39 -99 -22 -56 -70 -292
-70 -346 0 -35 -18 -104 -48 -185 -11 -30 -25 -89 -31 -130 -5 -41 -22 -109
-36 -151 -14 -42 -34 -136 -44 -210 -11 -82 -26 -150 -38 -174 -25 -48 -29
-67 -48 -214 -8 -62 -28 -154 -44 -205 -16 -50 -34 -110 -40 -133 -13 -47 -31
-58 -96 -54 -60 3 -72 9 -95 48 -16 27 -24 69 -35 177 -8 77 -19 157 -24 176
-5 19 -17 60 -26 90 -19 67 -23 138 -30 490 -6 362 -16 419 -104 590 -22 41
-47 108 -56 148 -10 40 -27 84 -37 98 -22 28 -88 64 -115 64 -39 -1 -140 -98
-182 -175 -12 -22 -46 -74 -77 -115 -30 -41 -64 -95 -74 -119 -11 -24 -30 -56
-43 -71 -22 -27 -61 -87 -107 -165 -26 -44 -51 -82 -81 -127 -11 -15 -19 -31
-19 -36 0 -5 -13 -23 -30 -40 -16 -18 -30 -37 -30 -43 0 -7 -19 -42 -43 -78
-23 -36 -49 -79 -56 -96 -7 -16 -21 -35 -32 -43 -10 -7 -19 -20 -19 -28 0 -15
-104 -204 -139 -251 -11 -15 -31 -47 -43 -70 -43 -79 -96 -151 -134 -179 -20
-16 -47 -39 -60 -52 -26 -26 -87 -40 -107 -23 -29 24 -40 112 -28 227 6 60 11
143 11 184 0 107 26 347 50 470 12 58 28 186 36 285 7 99 23 218 33 265 29
123 39 218 52 460 6 118 17 244 25 280 30 134 43 263 54 540 6 157 19 332 27
390 10 62 17 170 17 263 l1 157 -30 29 c-53 49 -72 55 -185 54 -114 -1 -204
-23 -263 -63 -44 -30 -115 -132 -137 -195 -10 -28 -25 -66 -34 -84 -25 -48
-34 -193 -51 -841 -9 -322 -21 -616 -27 -655 -5 -38 -16 -113 -24 -165 -7 -52
-18 -250 -24 -440 -28 -933 -26 -893 -45 -929 -19 -38 -25 -134 -45 -761 -20
-632 -13 -691 88 -761 24 -16 52 -24 97 -27 82 -5 132 17 219 99 63 59 156
175 156 195 0 5 11 25 24 45 13 19 55 96 92 170 37 74 73 141 79 149 6 8 18
31 25 50 7 19 30 73 51 120 21 47 61 146 89 220 28 74 61 158 75 185 24 49 82
206 110 296 8 25 26 63 40 83 14 20 25 39 25 41 0 2 11 28 25 57 34 74 108
164 163 199 41 26 54 30 100 26 47 -3 56 -8 90 -47 20 -24 41 -53 47 -64 5
-12 12 -176 16 -366 6 -290 10 -363 28 -455 12 -60 28 -186 36 -280 27 -324
38 -410 56 -458 18 -46 41 -193 55 -352 5 -58 12 -85 25 -98 26 -25 25 -19 56
-354 4 -42 10 -63 19 -63 14 0 23 -26 54 -150 12 -47 27 -92 34 -100 7 -8 19
-31 26 -50 21 -53 49 -91 97 -132 65 -55 79 -56 154 -9 58 37 108 91 144 156
77 139 98 185 123 275 39 136 48 181 68 320 9 63 22 133 29 155 21 61 42 181
50 270 3 44 17 118 30 165 13 47 33 139 44 205 11 66 29 158 41 205 11 47 27
148 35 225 9 77 26 179 40 227 14 47 31 135 39 195 8 60 28 162 44 228 17 66
35 170 42 230 6 61 24 155 40 210 15 55 33 136 39 180 7 44 23 119 36 166 14
47 38 149 54 225 17 77 35 155 41 174 6 19 17 71 26 115 8 44 28 134 44 200
37 156 111 474 149 645 17 74 39 169 50 210 41 160 64 259 81 345 10 50 30
126 43 170 14 44 30 105 37 135 7 30 37 136 67 235 70 228 71 234 89 330 8 44
32 136 53 205 72 232 100 345 112 435 13 106 4 145 -34 145 -20 0 -29 -14 -66
-97z"/>
<path d="M26310 7423 c-44 -7 -184 -66 -225 -93 -37 -25 -63 -41 -154 -95 -18
-11 -80 -55 -138 -97 -57 -43 -107 -78 -109 -78 -12 0 -95 -63 -164 -125 -41
-37 -93 -81 -114 -99 -21 -17 -76 -62 -122 -101 -46 -38 -109 -90 -140 -115
-74 -59 -767 -749 -869 -866 -44 -50 -96 -112 -115 -138 -19 -26 -47 -62 -61
-79 -64 -80 -120 -171 -140 -229 -11 -35 -29 -72 -39 -83 -33 -38 -65 -239
-57 -363 8 -115 25 -161 82 -214 62 -57 62 -57 157 -73 179 -32 455 -7 648 58
41 14 101 31 133 38 33 7 70 21 83 31 13 11 73 29 137 42 63 13 128 31 145 40
17 9 87 25 154 36 153 25 151 24 221 50 81 29 371 53 542 45 186 -9 249 -20
344 -57 103 -41 151 -81 151 -129 0 -35 -62 -190 -106 -264 -13 -22 -30 -60
-38 -83 -16 -43 -77 -139 -128 -200 -16 -18 -28 -39 -28 -47 0 -7 -11 -26 -24
-42 -13 -16 -38 -56 -55 -90 -17 -33 -38 -64 -46 -67 -9 -3 -19 -16 -24 -28
-38 -97 -609 -687 -805 -833 -22 -16 -61 -47 -87 -69 -43 -37 -121 -98 -277
-214 -31 -23 -67 -47 -80 -52 -13 -6 -42 -23 -65 -39 -147 -100 -311 -184
-397 -202 -61 -13 -196 -7 -212 9 -17 17 -27 89 -28 193 0 76 -5 110 -26 170
-14 40 -30 81 -35 90 -13 25 -57 33 -85 14 -32 -21 -42 -42 -60 -132 -21 -99
-32 -598 -15 -686 16 -88 83 -183 163 -233 59 -37 67 -39 138 -38 42 0 100 8
130 17 30 9 82 21 115 27 92 18 156 38 195 63 19 12 53 31 75 42 22 11 47 25
55 31 8 7 33 22 55 34 45 25 181 125 190 140 4 6 23 19 43 29 43 22 88 59 197
161 101 94 467 461 560 561 123 132 305 343 305 354 0 3 41 55 90 116 50 61
90 116 90 122 0 5 10 24 23 41 21 29 96 151 124 203 85 160 128 262 194 468
26 83 53 179 58 215 17 101 14 437 -4 507 -17 70 -90 216 -125 252 -85 87
-182 154 -256 176 -73 21 -217 35 -369 35 -113 -1 -194 -7 -430 -36 -27 -3
-113 -21 -190 -39 -77 -19 -158 -37 -180 -40 -22 -4 -67 -15 -100 -25 -33 -10
-82 -23 -110 -29 -27 -6 -124 -29 -215 -50 -277 -66 -351 -73 -433 -45 -33 11
-45 20 -39 29 14 25 175 191 276 285 167 155 263 242 288 259 14 9 40 31 59
48 19 18 88 80 154 137 66 58 147 130 180 160 33 31 64 56 69 56 5 0 27 20 50
43 37 39 167 154 377 332 101 85 134 105 195 118 75 16 83 6 99 -124 15 -118
19 -132 52 -176 24 -33 73 -47 73 -20 0 7 13 28 29 47 33 40 114 198 146 285
12 33 32 85 43 115 38 99 55 347 31 450 -22 98 -119 177 -199 163z"/>
<path d="M5745 7340 c-212 -38 -359 -71 -410 -92 -33 -14 -85 -31 -115 -37
-30 -7 -75 -24 -100 -39 -25 -15 -67 -39 -95 -53 -231 -120 -325 -193 -380
-296 -39 -73 -29 -83 79 -83 84 0 117 12 168 60 11 10 37 27 57 36 20 9 52 28
71 40 19 13 58 28 86 34 29 6 67 22 85 36 19 14 59 32 89 41 30 8 79 27 108
40 41 19 91 29 215 43 89 11 185 24 212 30 107 23 214 23 305 0 47 -12 113
-26 148 -30 104 -13 212 -93 352 -261 44 -53 49 -65 86 -210 37 -148 39 -160
39 -319 0 -159 -1 -169 -33 -270 -18 -58 -42 -127 -54 -155 -11 -27 -30 -77
-42 -110 -25 -66 -42 -102 -61 -125 -7 -8 -17 -29 -23 -47 -6 -17 -27 -57 -46
-87 -20 -31 -36 -63 -36 -70 0 -8 -15 -32 -32 -54 -41 -51 -117 -156 -143
-198 -67 -108 -364 -427 -629 -676 -244 -230 -273 -248 -405 -248 -87 0 -136
22 -147 65 -14 57 4 228 34 320 16 50 32 113 36 140 4 28 23 122 42 210 19 88
39 201 45 250 6 50 23 142 39 205 16 63 34 156 40 205 7 50 21 133 33 185 12
59 20 130 20 186 0 82 -4 97 -33 156 -37 75 -60 91 -148 108 -113 23 -215 -12
-287 -99 -51 -63 -60 -83 -84 -196 -11 -55 -25 -116 -31 -135 -11 -38 -33
-179 -50 -330 -6 -52 -24 -149 -39 -215 -16 -66 -31 -155 -35 -197 -3 -42 -21
-141 -40 -220 -20 -82 -38 -185 -41 -243 -5 -73 -14 -114 -31 -154 -15 -34
-28 -90 -35 -150 -25 -230 -27 -242 -50 -276 -48 -69 -169 -115 -306 -115 -45
0 -107 -28 -111 -51 -3 -17 100 -126 163 -171 42 -31 123 -132 127 -158 1 -8
3 -280 3 -605 0 -456 3 -600 13 -633 17 -55 98 -188 137 -224 17 -15 40 -31
51 -34 32 -8 100 38 124 86 11 22 29 58 40 80 27 52 37 108 50 275 6 77 22
198 36 269 13 70 29 185 34 255 23 287 37 362 91 477 37 79 77 114 128 114 58
0 96 -17 128 -58 45 -57 110 -183 137 -265 13 -41 35 -96 49 -123 13 -27 30
-67 37 -89 7 -22 21 -52 32 -67 10 -15 30 -62 44 -105 14 -43 36 -101 49 -128
13 -28 27 -64 30 -80 4 -17 23 -58 41 -92 19 -34 34 -68 34 -76 0 -8 12 -36
26 -63 15 -27 37 -77 50 -112 13 -35 37 -89 53 -120 16 -31 35 -77 42 -102 7
-25 26 -65 41 -89 15 -25 28 -51 28 -59 0 -8 15 -44 33 -81 19 -36 42 -88 52
-116 10 -27 29 -63 42 -78 13 -16 23 -34 23 -40 0 -16 107 -234 133 -270 11
-16 33 -54 49 -85 16 -31 44 -82 63 -112 79 -129 174 -277 232 -363 35 -51 72
-110 84 -132 12 -22 59 -87 104 -145 45 -58 92 -125 106 -150 67 -127 151
-205 269 -255 132 -54 149 -55 250 -6 72 35 94 53 145 112 72 85 78 96 106
190 37 128 48 189 59 338 13 184 -1 578 -24 631 -18 44 -36 221 -36 354 0 56
-7 142 -15 191 -8 50 -15 111 -15 137 0 66 -17 98 -50 98 -37 0 -77 -34 -85
-73 -4 -17 -19 -54 -33 -82 -26 -51 -44 -131 -57 -245 -9 -84 -30 -183 -50
-239 -23 -67 -30 -207 -15 -320 11 -84 11 -109 -3 -191 -24 -138 -57 -174
-158 -167 -104 6 -175 88 -327 377 -19 36 -42 79 -52 95 -29 48 -110 209 -110
219 0 10 -116 244 -129 261 -5 5 -19 39 -31 75 -22 65 -72 176 -135 300 -18
36 -40 88 -50 115 -10 28 -26 61 -35 75 -9 14 -27 52 -40 85 -13 33 -31 74
-40 90 -9 17 -23 48 -30 70 -7 22 -21 56 -31 75 -19 36 -81 184 -125 298 -13
35 -35 82 -47 105 -13 23 -34 69 -46 102 -12 33 -26 64 -31 70 -9 11 -41 69
-112 205 -22 41 -47 86 -57 100 -34 48 -91 209 -91 255 0 50 54 163 111 235
68 85 206 237 304 335 259 258 461 486 530 596 17 26 53 82 82 123 29 41 60
90 69 108 9 18 24 41 33 51 18 21 87 144 126 227 75 157 89 187 96 215 5 17
22 68 38 115 68 193 68 617 0 783 -12 28 -37 86 -57 127 -19 41 -48 103 -64
137 -15 34 -34 68 -41 75 -6 7 -25 30 -41 51 -61 83 -153 161 -241 205 -55 27
-105 40 -320 81 -78 15 -385 23 -450 11z"/>
<path d="M11750 7304 c-59 -34 -136 -118 -190 -209 -29 -49 -75 -122 -108
-173 -13 -19 -32 -59 -43 -88 -11 -29 -30 -68 -43 -87 -13 -19 -27 -45 -31
-56 -3 -12 -22 -45 -41 -74 -19 -29 -38 -66 -43 -83 -5 -17 -25 -57 -45 -88
-20 -31 -36 -62 -36 -70 0 -7 -10 -26 -22 -42 -22 -27 -56 -87 -133 -239 -20
-38 -60 -110 -89 -160 -30 -49 -80 -142 -111 -205 -32 -63 -73 -137 -92 -165
-18 -27 -33 -57 -33 -65 0 -8 -14 -34 -30 -58 -16 -24 -37 -64 -46 -90 -10
-26 -23 -54 -30 -62 -6 -8 -24 -40 -39 -70 -15 -30 -33 -66 -41 -80 -8 -14
-47 -90 -87 -170 -39 -80 -98 -180 -130 -222 -54 -73 -165 -178 -188 -178 -5
0 -42 -15 -82 -34 -79 -37 -113 -48 -202 -71 -33 -8 -103 -26 -155 -40 -52
-14 -108 -25 -123 -25 -16 0 -44 -13 -65 -29 -20 -16 -57 -35 -82 -41 -61 -16
-70 -26 -70 -74 0 -51 24 -80 89 -109 38 -17 76 -21 211 -27 200 -7 233 -18
251 -83 18 -66 7 -165 -22 -212 -14 -22 -31 -56 -39 -75 -8 -19 -27 -55 -42
-79 -15 -24 -33 -60 -39 -79 -7 -20 -25 -56 -41 -81 -16 -25 -33 -64 -39 -86
-6 -22 -26 -65 -45 -95 -19 -31 -34 -63 -34 -73 0 -16 -24 -69 -64 -142 -9
-16 -16 -35 -16 -41 0 -7 -31 -74 -69 -150 -37 -77 -87 -178 -109 -225 -67
-138 -102 -211 -129 -264 -20 -38 -27 -70 -31 -135 -4 -77 -2 -87 16 -104 31
-27 65 -14 135 52 58 55 157 189 157 213 0 6 33 79 74 163 40 83 90 187 111
231 21 44 82 171 136 283 55 112 99 208 99 214 0 5 8 22 19 36 24 35 114 226
131 277 7 22 26 66 41 97 16 32 29 62 29 68 0 6 28 68 62 138 65 135 103 187
184 249 122 94 164 116 276 144 46 11 108 27 138 34 65 17 128 19 165 5 47
-18 132 -113 145 -161 15 -53 -2 -255 -26 -322 -21 -58 -41 -174 -48 -287 -11
-145 -24 -234 -45 -298 -29 -86 -41 -235 -48 -567 -6 -297 3 -478 29 -583 16
-64 63 -145 108 -186 58 -52 99 -50 186 8 36 25 77 59 89 77 13 17 43 52 67
78 25 25 51 60 60 76 94 175 146 340 155 496 4 79 3 90 -25 150 -17 35 -44 80
-61 99 -17 19 -31 40 -31 45 0 6 -16 25 -35 42 -32 30 -35 37 -35 89 0 30 9
90 20 132 26 104 50 294 50 400 0 128 19 349 34 412 71 280 94 346 152 440 49
79 61 157 68 434 6 215 9 252 35 365 16 69 34 178 41 241 7 63 25 174 40 245
16 72 34 175 40 230 6 55 24 154 40 220 15 66 34 165 40 220 6 55 22 137 35
183 33 115 38 178 26 317 -8 87 -15 126 -29 145 -10 14 -29 51 -41 83 -42 102
-120 133 -211 81z m-391 -1355 l33 -20 -4 -157 c-4 -130 -9 -166 -26 -209 -12
-29 -30 -103 -41 -165 -10 -62 -27 -133 -36 -158 -9 -25 -27 -96 -40 -158 -16
-81 -34 -137 -64 -198 -63 -127 -115 -153 -306 -154 -125 0 -211 20 -244 57
-32 37 -25 86 29 193 23 47 56 112 72 145 16 33 35 71 43 85 8 14 29 54 47 90
17 36 49 94 69 130 20 36 71 132 113 214 80 154 152 272 181 296 16 13 69 27
115 29 14 0 40 -8 59 -20z"/>
<path d="M21600 7305 c-25 -14 -55 -38 -68 -53 -36 -41 -105 -133 -127 -168
-11 -17 -33 -51 -49 -74 -15 -24 -33 -57 -38 -74 -6 -17 -19 -40 -28 -51 -10
-11 -48 -83 -86 -160 -37 -77 -73 -147 -80 -155 -13 -15 -55 -94 -116 -215
-16 -33 -41 -74 -54 -92 -13 -17 -24 -39 -24 -48 0 -9 -11 -31 -25 -49 -21
-27 -51 -83 -128 -233 -37 -73 -52 -101 -91 -172 -23 -41 -65 -120 -94 -175
-29 -56 -73 -135 -98 -177 -24 -42 -44 -78 -44 -81 0 -3 -18 -37 -40 -74 -22
-38 -40 -74 -40 -81 0 -7 -18 -40 -40 -74 -22 -34 -40 -69 -40 -78 0 -9 -18
-47 -40 -85 -22 -37 -40 -73 -40 -78 0 -5 -27 -47 -60 -93 -57 -79 -161 -178
-205 -196 -11 -4 -58 -23 -105 -43 -47 -19 -107 -40 -135 -46 -27 -6 -84 -22
-125 -35 -41 -13 -102 -29 -134 -34 -78 -14 -217 -83 -256 -127 -43 -50 -46
-42 53 -124 l48 -40 152 0 c222 0 268 -19 281 -116 12 -89 -11 -163 -118 -374
-19 -36 -37 -81 -41 -100 -4 -19 -15 -46 -25 -60 -10 -14 -32 -56 -49 -95 -17
-38 -38 -76 -46 -85 -7 -8 -22 -38 -33 -66 -11 -28 -55 -122 -97 -210 -124
-256 -152 -315 -184 -389 -57 -133 -80 -180 -103 -207 -18 -23 -23 -44 -26
-115 -4 -79 -2 -90 16 -106 18 -16 26 -17 54 -8 45 15 139 104 181 171 37 60
120 230 132 270 4 14 22 50 39 80 18 30 38 71 46 90 8 19 27 55 42 79 15 25
28 49 28 53 0 5 18 47 40 94 22 47 40 90 40 96 0 11 23 54 58 106 12 19 22 41
22 49 0 8 17 45 38 81 21 37 46 88 56 113 9 26 26 57 37 70 11 12 22 34 26 48
3 14 18 53 34 86 15 33 42 103 59 155 18 52 40 106 50 120 9 14 20 35 24 47
10 31 99 150 153 202 69 68 186 138 252 151 31 5 90 21 131 35 81 27 186 34
237 14 31 -11 88 -63 106 -94 22 -41 25 -103 11 -269 -10 -120 -23 -204 -44
-281 -19 -72 -31 -148 -35 -220 -4 -62 -17 -149 -30 -200 -45 -174 -50 -238
-50 -645 0 -278 4 -405 13 -457 17 -88 68 -188 122 -237 58 -52 100 -50 187
10 37 25 75 58 85 75 10 16 22 29 26 29 28 0 212 306 212 351 0 8 14 55 32
104 27 76 32 104 32 185 l0 95 -41 60 c-22 34 -49 67 -58 75 -9 8 -33 39 -52
69 l-35 54 11 76 c17 126 30 295 36 496 7 213 26 364 55 449 12 31 25 94 31
139 14 108 30 157 84 252 64 111 77 170 85 375 4 101 18 244 33 340 14 91 31
219 37 285 7 66 25 170 40 230 15 61 33 162 39 225 7 63 23 162 37 219 14 57
34 159 45 225 11 67 32 171 47 231 46 189 35 488 -21 547 -6 7 -21 31 -32 52
-42 82 -125 107 -205 61z m-385 -1359 c15 -11 20 -29 23 -82 6 -109 -13 -310
-32 -339 -15 -23 -35 -114 -51 -228 -3 -26 -17 -80 -31 -120 -14 -39 -33 -116
-44 -171 -21 -107 -54 -171 -116 -225 -44 -39 -81 -46 -245 -46 -112 0 -143 4
-178 20 l-43 19 4 96 c5 92 7 98 66 215 89 177 220 433 252 490 15 28 42 79
60 115 63 124 134 227 170 249 42 24 136 29 165 7z"/>
</g>
</svg>
